<?xml version="1.0" encoding="utf-8"?>
<!-- Generator: Adobe Illustrator 24.0.2, SVG Export Plug-In . SVG Version: 6.00 Build 0)  -->
<svg version="1.1" id="OBJECTS" xmlns="http://www.w3.org/2000/svg" xmlns:xlink="http://www.w3.org/1999/xlink" x="0px" y="0px"
	 viewBox="0 0 500 500" style="enable-background:new 0 0 500 500;" xml:space="preserve">
<style type="text/css">
	.st0{fill:#FFCA00;}
	.st1{fill:#FFFFFF;}
	.st2{fill:#1D1F38;}
	.st3{fill:#FF0000;}
	.st4{fill:#1D1F38;stroke:#1D1F38;stroke-width:0.6045;stroke-miterlimit:10;}
	.st5{fill:#1D1F38;stroke:#1D1F38;stroke-width:0.5778;stroke-miterlimit:10;}
</style>
<g>
	<g>
		<g>
			
				<ellipse transform="matrix(0.7071 -0.7071 0.7071 0.7071 -103.5534 249.9999)" class="st0" cx="250" cy="250" rx="173.6" ry="173.6"/>
			<path class="st1" d="M250,83.9c91.7,0,166.1,74.3,166.1,166.1S341.7,416.1,250,416.1S83.9,341.7,83.9,250S158.3,83.9,250,83.9
				 M250,68.9c-24.4,0-48.2,4.8-70.5,14.2C158,92.3,138.6,105.3,122,122c-16.6,16.6-29.7,36-38.8,57.5c-9.4,22.3-14.2,46-14.2,70.5
				s4.8,48.2,14.2,70.5c9.1,21.6,22.2,40.9,38.8,57.5c16.6,16.6,36,29.7,57.5,38.8c22.3,9.4,46,14.2,70.5,14.2s48.2-4.8,70.5-14.2
				c21.6-9.1,40.9-22.2,57.5-38.8c16.6-16.6,29.7-36,38.8-57.5c9.4-22.3,14.2-46,14.2-70.5s-4.8-48.2-14.2-70.5
				c-9.1-21.6-22.2-40.9-38.8-57.5c-16.6-16.6-36-29.7-57.5-38.8C298.2,73.7,274.4,68.9,250,68.9L250,68.9z"/>
		</g>
		<g>
			
				<ellipse transform="matrix(0.7071 -0.7071 0.7071 0.7071 -103.5534 249.9999)" class="st1" cx="250" cy="250" rx="170.6" ry="170.6"/>
			<path class="st2" d="M250,83.9c91.7,0,166.1,74.3,166.1,166.1S341.7,416.1,250,416.1S83.9,341.7,83.9,250S158.3,83.9,250,83.9
				 M250,74.9c-23.6,0-46.6,4.6-68.1,13.8c-20.8,8.8-39.6,21.4-55.6,37.5c-16.1,16.1-28.7,34.8-37.5,55.6
				c-9.1,21.6-13.8,44.5-13.8,68.1s4.6,46.6,13.8,68.1c8.8,20.8,21.4,39.6,37.5,55.6c16.1,16.1,34.8,28.7,55.6,37.5
				c21.6,9.1,44.5,13.8,68.1,13.8s46.6-4.6,68.1-13.8c20.8-8.8,39.6-21.4,55.6-37.5c16.1-16.1,28.7-34.8,37.5-55.6
				c9.1-21.6,13.8-44.5,13.8-68.1s-4.6-46.6-13.8-68.1c-8.8-20.8-21.4-39.6-37.5-55.6c-16.1-16.1-34.8-28.7-55.6-37.5
				C296.6,79.6,273.6,74.9,250,74.9L250,74.9z"/>
		</g>
		<g>
			
				<ellipse transform="matrix(0.7071 -0.7071 0.7071 0.7071 -103.5534 249.9999)" class="st1" cx="250" cy="250" rx="161.2" ry="161.2"/>
			<path class="st3" d="M250,93.6c41.8,0,81.1,16.3,110.6,45.8s45.8,68.8,45.8,110.6s-16.3,81.1-45.8,110.6
				c-29.5,29.5-68.8,45.8-110.6,45.8s-81.1-16.3-110.6-45.8c-29.5-29.5-45.8-68.8-45.8-110.6s16.3-81.1,45.8-110.6
				C168.9,109.9,208.2,93.6,250,93.6 M250,83.9c-91.7,0-166.1,74.3-166.1,166.1S158.3,416.1,250,416.1S416.1,341.7,416.1,250
				S341.7,83.9,250,83.9L250,83.9z"/>
		</g>
	</g>
	<g>
		<g>
			<path class="st4" d="M156.4,185.6c-2.6,0.9-5.3,1.1-8.2,0.5s-5.6-1.9-8.1-3.9c-2.6-2-4.4-4.4-5.6-7c-1.2-2.7-1.6-5.4-1.3-8.1
				c0.3-2.7,1.4-5.2,3.2-7.5c1.5-1.9,3.3-3.4,5.3-4.3c2-0.9,4.2-1.3,6.5-1.2l0.9,6.1c-3.2-0.1-5.7,1-7.5,3.2
				c-1.1,1.4-1.7,2.9-1.9,4.5c-0.2,1.6,0.1,3.3,0.9,4.8c0.8,1.6,2,3,3.6,4.3c1.6,1.3,3.3,2.1,5,2.5c1.7,0.4,3.4,0.3,4.9-0.2
				c1.6-0.5,2.9-1.5,4-2.9c1.8-2.2,2.2-4.9,1.4-8l6.2-0.5c0.7,2.2,0.8,4.5,0.3,6.7c-0.5,2.2-1.5,4.2-3,6.2
				C161.2,183.1,159,184.7,156.4,185.6z"/>
			<path class="st4" d="M191.4,155.5l-9.7-4.5l-0.3,0.2l-4.7,3.2l5.2,7.6l-5.4,3.7l-18.5-27.2l10.1-6.9c2.1-1.4,4.2-2.2,6.2-2.5
				c2.1-0.2,4,0.1,5.9,1c1.8,0.9,3.4,2.4,4.8,4.4c1.4,2,2.1,4,2.3,6.1c0.2,2-0.3,4-1.3,5.8l11.2,5.2L191.4,155.5z M175.8,135.6
				c-1.4-0.2-2.9,0.2-4.6,1.3l-4.4,3l6.5,9.5l4.4-3c1.6-1.1,2.6-2.4,2.9-3.8c0.3-1.4-0.1-2.9-1.1-4.4
				C178.4,136.7,177.2,135.8,175.8,135.6z"/>
			<path class="st4" d="M194.2,117.5l6.1-2.4l11.8,30.7l-6.1,2.4L194.2,117.5z"/>
			<path class="st4" d="M225.8,141.4c-2.2-0.4-4-1-5.4-2l1.3-6c1.4,0.8,2.9,1.4,4.7,1.8c1.8,0.4,3.5,0.4,5.1,0.2
				c1.8-0.3,3.2-0.8,3.9-1.6c0.8-0.8,1.1-1.7,0.9-2.7c-0.1-0.8-0.5-1.4-1.1-1.8c-0.6-0.4-1.3-0.7-2.2-0.9c-0.9-0.2-2-0.4-3.5-0.5
				c-2.2-0.3-4.1-0.6-5.5-1c-1.5-0.4-2.8-1.1-3.9-2.3s-1.9-2.8-2.3-5c-0.3-1.9-0.1-3.7,0.5-5.3c0.6-1.7,1.8-3.1,3.4-4.3
				c1.6-1.2,3.7-2,6.3-2.3c1.8-0.3,3.6-0.3,5.4-0.1c1.8,0.2,3.4,0.7,4.8,1.5l-1.1,6c-2.9-1.3-5.6-1.8-8.2-1.4
				c-1.8,0.3-3.1,0.8-3.9,1.6c-0.8,0.8-1.1,1.8-0.9,2.9c0.2,1.1,0.8,1.9,1.9,2.3c1.1,0.4,2.7,0.7,4.8,0.9c2.2,0.3,4.1,0.6,5.5,1
				c1.5,0.4,2.8,1.1,3.9,2.3c1.2,1.1,1.9,2.8,2.3,4.9c0.3,1.9,0.1,3.6-0.6,5.3c-0.7,1.7-1.8,3.1-3.5,4.3c-1.7,1.2-3.8,2-6.3,2.3
				C230.2,141.8,228,141.7,225.8,141.4z"/>
			<path class="st4" d="M261.5,113.2l-9-0.9l0.6-6.2l24.6,2.6l-0.6,6.2l-9-0.9l-2.8,26.6l-6.5-0.7L261.5,113.2z"/>
			<path class="st4" d="M292.4,112.8l6.2,2l-10.2,31.3l-6.2-2L292.4,112.8z"/>
			<path class="st4" d="M318.9,153.7l-11.2-6.9l-5.8,4.7l-5.7-3.5l28-21.4l5.5,3.4l-6.4,34.7l-5.9-3.6L318.9,153.7z M320.1,147.7
				l2.8-13.1l-10.4,8.4L320.1,147.7z"/>
			<path class="st4" d="M370.2,168.3l-25.2,21.2l-3.5-4.1l6.2-23.7l-15.3,12.9l-4.2-5l25.2-21.2l3.5,4.2l-6.2,23.7l15.3-12.9
				L370.2,168.3z"/>
		</g>
		<g>
			<circle class="st3" cx="372.9" cy="250" r="7.8"/>
			<circle class="st3" cx="127.1" cy="250" r="7.8"/>
		</g>
	</g>
</g>
<g>
	<ellipse class="st3" cx="250" cy="250" rx="98.4" ry="96.7"/>
	<g>
		<path class="st1" d="M250,166.5c46.9,0,85.1,37.5,85.1,83.5s-38.2,83.5-85.1,83.5S164.9,296,164.9,250S203.1,166.5,250,166.5
			 M250,161.5c-49.7,0-90.1,39.6-90.1,88.5s40.3,88.5,90.1,88.5s90.1-39.6,90.1-88.5S299.7,161.5,250,161.5L250,161.5z"/>
	</g>
</g>
<g>
	<path class="st5" d="M155.9,347.8l-4.4,4l-13.8-15.2l3.5-3.2l15.5,0c1.7,0,2.9-0.2,3.9-0.5c0.9-0.3,1.7-0.8,2.3-1.3
		c0.9-0.8,1.4-1.8,1.4-2.8s-0.5-2-1.4-3.1c-0.8-0.9-1.7-1.5-2.8-1.9c-1-0.4-2.2-0.4-3.4-0.2l-0.6-5.7c2.1-0.4,4.1-0.3,6.1,0.4
		c2,0.7,3.8,1.9,5.5,3.7c1.4,1.5,2.3,3.1,2.7,4.7c0.5,1.6,0.4,3.2,0,4.8c-0.5,1.6-1.4,3-2.8,4.2c-1.3,1.2-2.7,2-4.2,2.5
		c-1.5,0.5-3.6,0.8-6.2,0.8l-9.3,0L155.9,347.8z"/>
	<path class="st5" d="M180.2,335.6l10.5,6.6c2.5,1.6,4.4,3.5,5.6,5.8c1.2,2.3,1.7,4.8,1.5,7.5c-0.2,2.7-1.1,5.3-2.8,8
		c-1.7,2.7-3.7,4.7-6,6c-2.3,1.3-4.8,2-7.4,1.9c-2.6-0.1-5.2-0.9-7.7-2.5l-10.5-6.6L180.2,335.6z M176.8,363.6
		c2.3,1.4,4.6,1.9,6.9,1.2c2.3-0.6,4.3-2.2,5.8-4.8c1.6-2.5,2.2-5,1.7-7.3c-0.4-2.3-1.8-4.2-4.1-5.7l-4.9-3.1L172,360.6L176.8,363.6
		z"/>
	<path class="st5" d="M241.7,374.5l5.7,0.7l-1.5,12.7c-1.6,1.1-3.4,1.9-5.4,2.4s-4,0.6-5.9,0.3c-2.8-0.3-5.2-1.3-7.3-3
		s-3.6-3.8-4.6-6.4s-1.3-5.5-0.9-8.6s1.3-5.8,2.9-8.1s3.6-4,6-5.1c2.4-1.1,5-1.5,7.9-1.2c2.4,0.3,4.5,1,6.3,2.1s3.3,2.7,4.4,4.6
		l-4.5,3.8c-1.7-2.6-3.8-4-6.6-4.3c-1.7-0.2-3.3,0-4.7,0.7c-1.4,0.7-2.6,1.7-3.5,3.2c-0.9,1.4-1.5,3.1-1.7,5.1
		c-0.2,1.9-0.1,3.7,0.5,5.3c0.6,1.6,1.5,2.9,2.7,3.9c1.2,1,2.7,1.6,4.4,1.8c1.8,0.2,3.5,0,5-0.8L241.7,374.5z"/>
	<path class="st5" d="M279.8,381l-12.4,2.2l-1.2,7.1l-6.3,1.1l6.5-33.1l6.1-1.1l17.4,28.9l-6.5,1.1L279.8,381z M276.9,375.9
		l-6.3-11.1l-2.2,12.6L276.9,375.9z"/>
	<path class="st5" d="M326.2,369.2l-9.1-16.6l0.4,17.5l-2.5,1.4l-14.2-9.5l8.8,16.3l-5.2,2.8l-15-27.7l4.6-2.5l18.3,12.3l-0.5-22
		l4.5-2.5l15.1,27.6L326.2,369.2z"/>
	<path class="st5" d="M356.2,335.1l4.2,4.1l-14.6,15.1l-22.7-21.9l14.3-14.8l4.2,4.1l-9.9,10.3l4.9,4.8l8.8-9.1l4.1,3.9l-8.8,9.1
		l5.2,5.1L356.2,335.1z"/>
</g>
</svg>
